<?xml version="1.0" encoding="UTF-8"?>
<svg width="572px" height="72px" viewBox="0 0 572 72" version="1.1" xmlns="http://www.w3.org/2000/svg" xmlns:xlink="http://www.w3.org/1999/xlink">
    <!-- Generator: Sketch 50.2 (55047) - http://www.bohemiancoding.com/sketch -->
    <title>Combined Shape</title>
    <desc>Created with Sketch.</desc>
    <defs></defs>
    <g id="Page-1" stroke="none" stroke-width="1" fill="none" fill-rule="evenodd">
        <g id="Logo-Copy-4" transform="translate(-61.000000, -64.000000)" fill="#F1F1F1">
            <path d="M266.196,103.972 L266.196,122.788 L282.324,122.788 C288.18,122.788 293.46,120.868 293.46,113.764 C293.46,106.756 289.14,103.972 282.612,103.972 L266.196,103.972 Z M251.124,134.5 L251.124,65.956 L283.38,65.956 C296.436,65.956 305.268,70.18 305.268,82.948 C305.268,89.86 302.1,94.276 295.956,97.252 C304.404,99.652 308.532,106.084 308.532,114.628 C308.532,128.548 296.724,134.5 284.34,134.5 L251.124,134.5 Z M266.196,77.668 L266.196,93.7 L281.46,93.7 C286.836,93.7 290.676,91.3 290.676,85.54 C290.676,79.108 285.684,77.668 280.308,77.668 L266.196,77.668 Z M385.735592,99.94 C385.735592,119.524 369.703592,135.364 350.215592,135.364 C330.631592,135.364 314.791592,119.524 314.791592,99.94 C314.791592,80.26 330.631592,64.42 350.215592,64.42 C369.703592,64.42 385.735592,80.26 385.735592,99.94 Z M350.215592,78.916 C338.791592,78.916 329.287592,88.516 329.287592,99.94 C329.287592,111.364 338.791592,120.868 350.215592,120.868 C361.639592,120.868 370.951592,111.364 370.951592,99.94 C370.951592,88.516 361.639592,78.916 350.215592,78.916 Z M412.731184,134.5 L412.731184,78.628 L390.939184,78.628 L390.939184,66.052 L449.403184,66.052 L449.403184,78.724 L427.803184,78.724 L427.803184,134.5 L412.731184,134.5 Z M476.398776,134.5 L476.398776,78.628 L454.606776,78.628 L454.606776,66.052 L513.070776,66.052 L513.070776,78.724 L491.470776,78.724 L491.470776,134.5 L476.398776,134.5 Z M571.170368,134.02 L521.250368,134.02 L521.250368,65.668 L536.034368,65.668 L536.034368,121.348 L571.170368,121.348 L571.170368,134.02 Z M624.75796,107.14 L593.46196,107.14 L593.46196,121.732 L632.14996,121.732 L632.14996,134.404 L578.86996,134.404 L578.86996,65.668 L628.88596,65.668 L628.88596,78.34 L593.46196,78.34 L593.46196,93.796 L624.75796,93.796 L624.75796,107.14 Z M91.316,134.5 L84.404,134.5 L84.404,72.676 L61.652,72.676 L61.652,66.532 L114.068,66.532 L114.068,72.676 L91.316,72.676 L91.316,134.5 Z M125.223592,66.532 L132.135592,66.532 L132.135592,96.004 L169.191592,96.004 L169.191592,66.532 L176.103592,66.532 L176.103592,134.5 L169.191592,134.5 L169.191592,102.34 L132.135592,102.34 L132.135592,134.5 L125.223592,134.5 L125.223592,66.532 Z M202.043183,128.356 L238.427183,128.356 L238.427183,134.5 L195.131183,134.5 L195.131183,66.532 L237.275183,66.532 L237.275183,72.676 L202.043183,72.676 L202.043183,96.1 L234.971183,96.1 L234.971183,102.148 L202.043183,102.148 L202.043183,128.356 Z" id="Combined-Shape"></path>
        </g>
    </g>
</svg>